<?xml version="1.0" encoding="UTF-8" standalone="no"?>
<!-- Created with Inkscape (http://www.inkscape.org/) -->

<svg
   width="600"
   height="600"
   id="svg2"
   sodipodi:version="0.32"
   inkscape:version="1.3 (0e150ed6c4, 2023-07-21)"
   sodipodi:docname="VegaExpressProxy.svg"
   inkscape:output_extension="org.inkscape.output.svg.inkscape"
   version="1.1"
   xmlns:inkscape="http://www.inkscape.org/namespaces/inkscape"
   xmlns:sodipodi="http://sodipodi.sourceforge.net/DTD/sodipodi-0.dtd"
   xmlns="http://www.w3.org/2000/svg"
   xmlns:svg="http://www.w3.org/2000/svg"
   xmlns:rdf="http://www.w3.org/1999/02/22-rdf-syntax-ns#"
   xmlns:cc="http://creativecommons.org/ns#"
   xmlns:dc="http://purl.org/dc/elements/1.1/">
  <sodipodi:namedview
     pagecolor="#ffffff"
     bordercolor="#666666"
     borderopacity="1"
     objecttolerance="10"
     gridtolerance="10"
     guidetolerance="10"
     inkscape:pageopacity="0"
     inkscape:pageshadow="2"
     inkscape:window-width="2560"
     inkscape:window-height="1009"
     id="namedview2997"
     showgrid="false"
     inkscape:zoom="0.31878731"
     inkscape:cx="-384.26875"
     inkscape:cy="456.41717"
     inkscape:window-x="1912"
     inkscape:window-y="-8"
     inkscape:window-maximized="1"
     inkscape:current-layer="layer1"
     inkscape:showpageshadow="2"
     inkscape:pagecheckerboard="0"
     inkscape:deskcolor="#d1d1d1" />
  <defs
     id="defs4" />
  <metadata
     id="metadata7">
    <rdf:RDF>
      <cc:Work
         rdf:about="">
        <dc:format>image/svg+xml</dc:format>
        <dc:type
           rdf:resource="http://purl.org/dc/dcmitype/StillImage" />
        <dc:title />
      </cc:Work>
    </rdf:RDF>
  </metadata>
  <g
     inkscape:label="Layer 1"
     inkscape:groupmode="layer"
     id="layer1">
    <g
       id="g1"
       transform="translate(-514.00009,-514.00003)">
      <rect
         style="fill:#ffffff;stroke:#666666;stroke-width:36.4499;stroke-miterlimit:4;stroke-dasharray:none;stroke-opacity:1"
         id="rect846"
         width="563.55011"
         height="563.55011"
         x="532.22504"
         y="532.22498"
         ry="41.600647"
         inkscape:export-xdpi="96"
         inkscape:export-ydpi="96" />
      <g
         id="g862"
         transform="matrix(2.1568053,0,0,2.1568053,-7168.8946,371.19269)"
         inkscape:export-xdpi="96"
         inkscape:export-ydpi="96"
         style="stroke-width:1.75237">
        <rect
           style="opacity:1;fill:none;fill-opacity:1;stroke:none;stroke-width:1.5545"
           id="rect2521-7-7-2-8-0-9-8-2-6-6-6-9-0-2-4-5-4-21-5-8-1-8-6-8-6-4-7-6-1"
           width="238.125"
           height="229.37917"
           x="3582.1963"
           y="91.637497" />
        <path
           style="opacity:1;fill:#666666;fill-opacity:1;stroke-width:1.24621"
           d="m 3699.109,323.6132 c -6.9412,-3.64805 -36.9835,-21.49755 -37.7141,-22.40748 -1.0377,-1.29271 -1.2802,-46.30987 -0.2599,-47.94223 0.3333,-0.53014 2.9311,-2.36082 5.7756,-4.06816 5.6397,-3.385 5.1731,-3.39416 10.8473,0.21353 l 2.7575,1.75349 -3.6788,2.15019 c -2.0235,1.18263 -3.5826,2.22927 -3.4646,2.32598 1.0613,0.86998 27.6764,16.11903 28.134,16.11903 0.4625,0 27.1116,-15.2731 28.1453,-16.1308 0.1266,-0.10289 -1.3863,-1.10419 -3.3566,-2.22454 -1.9705,-1.12035 -3.5793,-2.198 -3.5749,-2.39479 0,-0.197 1.8327,-1.37133 4.0634,-2.61011 l 4.0557,-2.2524 5.2094,3.06483 c 2.8652,1.68561 5.4846,3.50414 5.8206,4.04114 0.7578,1.2112 0.8184,46.43955 0.063,47.64207 -0.5694,0.90736 -37.4731,22.73422 -39.5805,23.41014 -0.6598,0.21151 -2.1193,-0.0988 -3.2439,-0.69001 z m -2.4356,-44.15543 c -0.3408,-0.34513 -6.6288,-4.1355 -13.9733,-8.423 l -13.3536,-7.79545 -0.1899,16.19463 c -0.1067,9.0061 0.093,16.4822 0.4495,16.84247 0.3523,0.35632 6.6403,4.15978 13.9734,8.45214 l 13.3335,7.80426 0.19,-16.22378 c 0.1033,-8.92309 -0.087,-16.50614 -0.4296,-16.85127 z m 23.4632,24.82652 c 7.3307,-4.27039 13.4599,-8.11085 13.6204,-8.53441 0.1599,-0.42359 0.2067,-7.91453 0.1,-16.64662 l -0.1899,-15.87645 -13.7829,8.04471 -13.783,8.04474 -0.19,16.66351 c -0.1032,9.16495 0.056,16.52977 0.3532,16.36619 0.3,-0.1636 6.5411,-3.79131 13.8718,-8.06167 z M 3619.869,277.41596 c -10.1071,-5.92866 -18.9338,-11.28694 -19.6143,-11.90733 -1.1292,-1.03014 -1.237,-3.13837 -1.237,-24.30569 v -23.17773 l 1.701,-1.57575 c 0.9352,-0.86667 3.5645,-2.60263 5.8425,-3.85767 l 4.142,-2.28192 3.6996,2.16209 c 2.0346,1.18914 3.6994,2.38148 3.6994,2.64966 0,0.26817 -1.2726,1.28352 -2.8274,2.25641 -1.5552,0.97287 -2.8271,1.97884 -2.8271,2.23547 0,0.25672 6.2078,4.07555 13.7954,8.48644 l 13.7954,8.01987 5.7216,-3.28149 c 5.5863,-3.20389 6.9761,-3.50681 6.9761,-1.52029 0,0.53687 0.8021,1.94094 1.7822,3.12009 l 1.7821,2.14398 -6.0031,3.45624 -6.0034,3.45624 -0.033,16.64196 -0.033,16.64202 3.8875,-2.22099 3.8875,-2.22099 v 4.94937 4.94934 l -5.1617,2.98972 c -2.8392,1.64433 -5.9399,2.98533 -6.8913,2.97999 -0.9517,-0.007 -9.9996,-4.86042 -20.1072,-10.78904 z m 15.8939,-17.28552 v -16.63586 l -13.5229,-7.87077 c -7.4373,-4.32889 -13.8008,-7.98004 -14.14,-8.11366 -0.3435,-0.13561 -0.5325,7.10645 -0.4269,16.3552 l 0.19,16.59813 13.7831,8.11862 c 7.5807,4.46524 13.8623,8.13339 13.9596,8.15144 0.097,0.0202 0.17,-7.45336 0.1667,-16.6031 z m 120.3459,25.08404 -5.1244,-2.99426 v -4.94182 -4.94182 l 3.8878,2.22099 3.8875,2.22099 -0.033,-16.64202 -0.033,-16.64196 -6.0031,-3.45624 -6.0031,-3.45624 1.7818,-2.14398 c 0.9804,-1.17915 1.7822,-2.58322 1.7822,-3.12009 0,-1.98652 1.3902,-1.6836 6.9764,1.52029 l 5.7216,3.28149 13.7954,-8.01987 c 7.5877,-4.41089 13.7958,-8.22983 13.7958,-8.48644 0,-0.25671 -1.2737,-1.26338 -2.8302,-2.23719 -1.5564,-0.97378 -2.7321,-2.06755 -2.6128,-2.43048 0.1199,-0.36293 1.8154,-1.57399 3.7688,-2.69113 l 3.5519,-2.03122 5.5989,3.39839 5.5994,3.39839 0.1866,23.74735 0.1865,23.74741 -2.3068,1.72761 c -5.0332,3.76982 -37.1436,21.97186 -38.7558,21.96905 -0.9454,-0.002 -4.0251,-1.35038 -6.844,-2.9972 z m 28.0964,-18.34192 10.9559,-6.42088 0.19,-16.59223 c 0.1066,-9.24538 -0.084,-16.4847 -0.4272,-16.3493 -0.3393,0.13358 -6.7023,3.78477 -14.1397,8.11366 l -13.5232,7.87077 v 16.66602 16.66604 l 3.0041,-1.76661 c 1.6522,-0.97162 7.9339,-4.65599 13.9598,-8.18747 z m -102.9257,-25.38372 c -10.1532,-5.98054 -18.9799,-11.31559 -19.6143,-11.85566 -1.0237,-0.87146 -1.1536,-3.61792 -1.1536,-24.39575 0,-21.40509 0.1066,-23.50755 1.2369,-24.50747 2.5689,-2.27186 38.3559,-22.74026 39.7585,-22.74026 1.4029,0 37.1896,20.4684 39.7587,22.74026 1.131,0.99989 1.237,3.10126 1.237,24.4842 0,21.38289 -0.1067,23.48428 -1.237,24.48416 -2.8021,2.47768 -38.4165,22.73733 -39.908,22.70224 -0.8898,-0.0203 -9.925,-4.93119 -20.0782,-10.91172 z m 15.9867,-17.20618 v -16.70764 l -5.8311,-3.36874 c -3.2074,-1.8528 -6.3084,-3.6694 -6.8916,-4.03686 -4.4007,-2.77315 -15.0193,-8.61065 -15.246,-8.3813 -0.4882,0.49433 -0.4955,32.07462 0,32.56874 0.3673,0.37145 27.1,16.30268 27.7995,16.56668 0.097,0.0367 0.1766,-7.45171 0.1766,-16.64088 z m 23.8104,7.63852 12.9444,-7.58054 v -16.36073 c 0,-8.99837 -0.1833,-16.36066 -0.411,-16.36066 -0.3601,0 -17.2807,9.6602 -20.0871,11.46806 -0.5832,0.37566 -2.5709,1.49631 -4.4172,2.49026 l -3.3577,1.80725 v 16.52151 c 0,15.20373 0.097,16.48456 1.1919,16.05844 0.6558,-0.25469 7.0172,-3.87433 14.1367,-8.04359 z m -16.5249,-33.41333 c 8.0822,-4.63015 24.2235,-14.2247 24.634,-14.64269 0.2566,-0.2611 -5.8668,-4.13685 -13.6064,-8.61314 l -14.0723,-8.13873 -14.0724,8.13873 c -7.7397,4.47629 -13.8624,8.35805 -13.6062,8.62613 0.4446,0.46504 27.0904,16.23028 27.5426,16.29586 0.1199,0.0168 1.5508,-0.73245 3.1807,-1.66616 z m -75.5038,12.35308 c -5.437,-3.19086 -11.6347,-6.78753 -13.7731,-7.99261 -6.2627,-3.52965 -15.1533,-9.24362 -15.7158,-10.10041 -0.2866,-0.43499 -0.5242,-11.15856 -0.5302,-23.83009 v -23.03916 l 2.2974,-1.72033 c 5.0354,-3.77094 37.1368,-21.96436 38.7463,-21.95926 1.6615,0.005 36.8736,20.09624 39.6018,22.59551 1.1357,1.04049 1.346,2.25112 1.346,7.75243 v 6.51939 l -3.8212,2.31373 c -2.102,1.27256 -4.0101,2.31377 -4.241,2.31377 -0.23,0 -0.4195,-1.90155 -0.4195,-4.22563 v -4.22563 l -14.1367,8.25213 -14.1367,8.2521 v 16.36589 c 0,9.00121 0.2366,16.36423 0.5305,16.36221 0.29,-0.002 1.8024,-0.79692 3.3574,-1.76648 1.5548,-0.96953 3.0803,-1.77285 3.3895,-1.78513 0.3099,-0.0134 0.4682,2.13852 0.3536,4.7796 l -0.2099,4.80195 -4.9479,3.0163 c -2.7211,1.65897 -5.5882,3.03991 -6.3713,3.06878 -0.7828,0.0303 -5.8718,-2.55823 -11.3088,-5.74906 z m 6.2081,-39.31286 c -0.2999,-0.27121 -6.6663,-4.05584 -14.15,-8.41057 l -13.6062,-7.91764 v 16.66548 16.66547 l 10.0723,5.78074 c 5.5396,3.17942 11.8217,6.90914 13.9594,8.28829 l 3.8877,2.50752 0.19,-16.54319 c 0.1033,-9.09877 -0.054,-16.76501 -0.3535,-17.0361 z m 18.8636,-15.43522 c 7.8259,-4.57412 14.1352,-8.39829 14.021,-8.49818 -0.9628,-0.84259 -27.5626,-16.09927 -28.0687,-16.09927 -0.4876,0 -26.9618,15.12893 -28.1737,16.10011 -0.1067,0.0864 6.0951,3.87089 13.783,8.41035 7.6887,4.53941 14.031,8.28724 14.0945,8.32853 0.063,0.0415 6.5182,-3.66745 14.3439,-8.24154 z m 104.6401,58.67365 c -7.794,-4.3192 -7.3761,-3.82119 -7.6301,-9.08773 -0.1265,-2.62779 0.033,-4.77613 0.3427,-4.77407 0.3132,0.002 1.8447,0.79693 3.3999,1.76644 1.5549,0.96957 3.0657,1.77286 3.3573,1.78514 0.2933,0.0135 0.5302,-7.34231 0.5302,-16.34352 v -16.36589 l -14.1364,-8.2521 -14.1366,-8.25213 v 4.22563 c 0,2.32408 -0.1899,4.22563 -0.4195,4.22563 -0.23,0 -2.1394,-1.04121 -4.2411,-2.31377 l -3.8211,-2.31373 v -6.50555 c 0,-5.84237 0.1633,-6.65253 1.5902,-7.94715 2.8654,-2.5974 37.7157,-22.42009 39.4171,-22.42009 1.5682,0 33.7706,18.28314 38.6868,21.96472 l 2.2972,1.72033 v 23.52709 23.52708 l -1.9436,1.39808 c -1.0694,0.76894 -5.602,3.49318 -10.0723,6.05383 -4.4705,2.56062 -12.5814,7.26058 -18.0241,10.44435 -5.4426,3.18372 -10.3728,5.7687 -10.9559,5.74434 -0.5829,-0.0237 -2.4912,-0.83746 -4.2407,-1.80693 z m 15.3809,-13.7355 c 3.0087,-1.89617 9.0486,-5.50367 13.4219,-8.0167 l 7.9518,-4.56914 V 171.8456 155.22605 l -13.9596,8.15217 -13.9598,8.15221 -0.1899,16.48409 c -0.1266,10.95028 0.054,16.48412 0.5379,16.48412 0.4001,0 3.1893,-1.55142 6.1977,-3.44764 z m 3.2646,-45.11174 c 7.667,-4.47287 13.8445,-8.21074 13.7275,-8.30651 -1.1593,-0.94878 -27.6971,-16.11735 -28.1973,-16.11735 -0.4966,0 -26.8494,15.13211 -28.0627,16.11384 -0.3033,0.24457 27.6968,16.6934 28.1834,16.55702 0.2232,-0.0631 6.6822,-3.77421 14.3491,-8.247 z m -80.2902,-13.40755 -0.2034,-6.87169 -13.783,-8.06736 -13.7831,-8.06732 -0.2099,4.23546 -0.21,4.23544 -4.2063,-2.34094 -4.2064,-2.34098 v -6.4534 c 0,-3.54939 0.2532,-6.84075 0.5512,-7.31411 1.0139,-1.61485 38.6457,-23.302273 40.4339,-23.302273 1.7878,0 39.4194,21.687423 40.4335,23.302273 0.2966,0.47336 0.5453,3.76472 0.5512,7.31411 v 6.4534 l -4.2063,2.34098 -4.2065,2.34094 -0.2099,-4.24934 -0.21,-4.24939 -13.783,8.07697 -13.7828,8.07697 -0.2032,6.87602 -0.2033,6.87598 h -4.1894 -4.1901 z m 17.6878,-21.86754 c 6.8769,-4.0005 13.051,-7.64678 13.7202,-8.10284 1.0393,-0.70806 -0.7821,-1.99753 -12.4668,-8.82562 -7.5261,-4.398007 -14.0884,-7.996397 -14.5829,-7.996397 -0.8767,0 -28.3763,15.847807 -28.0497,16.164677 0.9587,0.93072 27.2613,16.00239 27.95,16.01578 0.5093,0.0101 6.5527,-3.25511 13.4292,-7.2556 z"
           id="path1302"
           sodipodi:nodetypes="ssssscssssssscssssssscssscssssscccsssssscsscssssscssscccccccccscsscssscsssscccccccccssscssssscccccscsccssscccsscssssssssssccsssssscscsssscsssssscsssssssscscsscssscccscssscsssssscccsscssssssssssscssscccssscsssscccssssssscccccssssssssscccccccccssssccccccccccccsssssss" />
        <path
           id="path863"
           d="m 3687.5019,191.64337 c -12.7675,-7.5892 -12.961,-7.73553 -11.6503,-8.80994 1.3883,-1.13803 15.6462,-9.60275 22.1396,-13.14399 l 3.7407,-2.03998 10.5985,6.16511 c 12.6285,7.34603 16.1891,9.73889 15.4861,10.40766 -1.301,1.23774 -25.52,15.14056 -26.3735,15.13962 -0.5269,-5.8e-4 -6.8004,-3.47389 -13.9411,-7.71848 z"
           style="fill:#0000ff;fill-opacity:1;stroke-width:1.0992" />
        <path
           id="path867"
           d="m 3752.5296,157.79465 c -5.308,-3.0772 -11.2938,-6.60088 -13.3018,-7.83039 l -3.6511,-2.23548 1.469,-0.97299 c 0.8079,-0.53514 6.919,-4.09283 13.5803,-7.90596 12.0905,-6.9211 12.1144,-6.93126 14.0273,-5.96435 6.1394,3.10347 25.2733,14.47659 25.123,14.93304 -0.2383,0.72355 -25.8022,15.5711 -26.8097,15.5711 -0.4324,0 -5.1292,-2.51775 -10.437,-5.59497 z"
           style="fill:#0000ff;fill-opacity:1;stroke-width:1.0992" />
        <path
           id="path869"
           d="m 3691.1018,121.81466 c -5.4689,-3.0809 -11.5678,-6.59326 -13.5531,-7.80526 l -3.6098,-2.20363 6.4153,-3.77165 c 11.43,-6.7199 20.2282,-11.542262 21.0586,-11.542262 1.9463,0 26.4053,14.330812 26.3824,15.457792 -0.01,0.34469 -1.3853,1.45187 -3.0629,2.46041 -6.0397,3.6307 -22.7862,13.00623 -23.2318,13.00623 -0.2506,0 -4.93,-2.52074 -10.3987,-5.60163 z"
           style="fill:#0000ff;fill-opacity:1;stroke-width:1.0992" />
        <path
           id="path871"
           d="m 3627.2312,199.58064 c -4.2861,-2.57087 -10.3881,-6.13544 -13.5597,-7.92128 l -5.767,-3.24692 V 172.13828 155.8641 l 12.1372,7.09563 c 6.6755,3.90256 12.859,7.65481 13.7412,8.33828 l 1.6038,1.24269 -0.1813,15.85717 -0.1813,15.85711 z"
           style="fill:#14be97;fill-opacity:1;stroke-width:1.0992" />
        <path
           id="path873"
           d="m 3683.3405,232.39942 c -7.3722,-4.38226 -13.4708,-8.01955 -13.5525,-8.0829 -0.5013,-0.38861 -0.884,-19.47104 -0.5033,-25.09669 l 0.4582,-6.76976 1.9672,0.98252 c 1.0819,0.54037 7.2251,4.01277 13.6515,7.71641 l 11.6843,6.73394 0.01,16.25109 c 0,8.9381 -0.065,16.24704 -0.1508,16.24211 -0.086,-0.007 -6.1877,-3.59447 -13.5598,-7.97672 z"
           style="fill:#14be97;fill-opacity:1;stroke-width:1.0992" />
        <path
           id="path875"
           d="m 3684.185,304.586 c -6.5648,-3.89693 -12.5346,-7.51135 -13.2662,-8.03199 -1.306,-0.92948 -1.327,-1.23423 -1.1562,-16.76971 l 0.1741,-15.82305 13.092,7.72484 13.0922,7.72482 0.5481,5.0465 c 0.3152,2.90163 0.3152,9.75717 0,16.13019 l -0.5481,11.08377 z"
           style="fill:#14be97;fill-opacity:1;stroke-width:1.0992" />
        <path
           id="path877"
           d="m 3621.3085,267.95813 -13.0922,-7.71303 -0.1667,-15.99729 c -0.157,-15.07356 -0.1031,-15.97272 0.9351,-15.57234 0.6061,0.23377 6.783,3.6887 13.7265,7.67779 l 12.6246,7.25288 v 16.0606 c 0,8.83332 -0.2103,16.04795 -0.4675,16.03254 -0.2572,-0.0169 -6.3591,-3.49895 -13.5598,-7.74115 z"
           style="fill:#14be97;fill-opacity:1;stroke-width:1.0992" />
        <path
           id="path879"
           d="m 3767.5046,260.00256 v -16.23737 l 13.3104,-7.68558 c 7.3207,-4.22708 13.4928,-7.68557 13.7156,-7.68557 0.2228,0 0.3991,7.17097 0.3918,15.93555 l -0.014,15.93554 -13.7023,7.98739 -13.7022,7.9874 z"
           style="fill:#a1a1a1;fill-opacity:1;stroke-width:1.0992" />
        <path
           id="path881"
           d="m 3706.5528,295.6214 0.1666,-16.21666 12.9892,-7.57022 c 7.1442,-4.16362 13.0833,-7.47515 13.1983,-7.3589 0.1147,0.11638 0.4117,6.93124 0.6599,15.14437 l 0.451,14.933 -1.5779,1.47385 c -0.8679,0.8106 -6.1685,4.16197 -11.779,7.44742 -5.6105,3.28548 -11.1175,6.51142 -12.2377,7.16871 l -2.0368,1.19511 z"
           style="fill:#a1a1a1;fill-opacity:1;stroke-width:1.0992" />
        <path
           id="path883"
           d="m 3706.1922,234.54927 c -0.2203,-2.8647 -0.3977,-10.03658 -0.3944,-15.93748 l 0.01,-10.72885 12.3031,-7.03919 c 16.8149,-9.62062 14.9602,-8.92963 15.4119,-5.74222 0.209,1.47597 0.2965,8.61909 0.1942,15.87353 l -0.186,13.1899 -9.3515,5.46923 c -5.1433,3.00811 -11.2036,6.51649 -13.4672,7.79647 l -4.1157,2.32722 z"
           style="fill:#a1a1a1;fill-opacity:1;stroke-width:1.0992" />
        <path
           id="path885"
           d="m 3767.8942,201.80849 c -0.4811,-2.43491 -0.3753,-20.14375 0.1553,-26.00139 l 0.3901,-4.30693 12.7805,-7.50801 c 7.0293,-4.12939 12.9909,-7.51627 13.248,-7.52639 0.2573,-0.0101 0.4677,7.1671 0.4677,15.94938 v 15.96774 l -4.8317,2.7634 c -2.6574,1.51988 -8.5314,4.98438 -13.0535,7.69889 -4.5219,2.71456 -8.3444,4.93552 -8.4943,4.93552 -0.1499,0 -0.4478,-0.88749 -0.6621,-1.97221 z"
           style="fill:#a1a1a1;fill-opacity:1;stroke-width:1.0992" />
        <path
           id="path887"
           d="m 3626.6892,156.16554 c -7.1976,-4.27396 -13.0867,-8.11302 -13.0867,-8.53117 0,-0.41813 5.9673,-4.16295 13.2604,-8.32182 l 13.2605,-7.56159 13.3915,7.72215 c 7.3653,4.24723 13.3916,7.94125 13.3916,8.20903 0,0.34681 -20.9259,12.89827 -26.8133,16.08275 -0.1745,0.0945 -6.2062,-3.32534 -13.404,-7.59935 z"
           style="fill:#0000ff;fill-opacity:1;stroke:none;stroke-width:1.0992;stroke-opacity:1" />
      </g>
    </g>
  </g>
</svg>
